G04 #@! TF.GenerationSoftware,KiCad,Pcbnew,5.1.6+dfsg1-1*
G04 #@! TF.CreationDate,2020-12-28T17:31:15+00:00*
G04 #@! TF.ProjectId,68000 Relocator FLASH Kickstart_Manual Route_DIP_Power Plan Split,36383030-3020-4526-956c-6f6361746f72,v1.0*
G04 #@! TF.SameCoordinates,Original*
G04 #@! TF.FileFunction,OtherDrawing,Comment*
%FSLAX46Y46*%
G04 Gerber Fmt 4.6, Leading zero omitted, Abs format (unit mm)*
G04 Created by KiCad (PCBNEW 5.1.6+dfsg1-1) date 2020-12-28 17:31:15*
%MOMM*%
%LPD*%
G01*
G04 APERTURE LIST*
%ADD10C,0.300000*%
G04 APERTURE END LIST*
D10*
X207772428Y-100977571D02*
X207772428Y-101906142D01*
X207201000Y-101406142D01*
X207201000Y-101620428D01*
X207129571Y-101763285D01*
X207058142Y-101834714D01*
X206915285Y-101906142D01*
X206558142Y-101906142D01*
X206415285Y-101834714D01*
X206343857Y-101763285D01*
X206272428Y-101620428D01*
X206272428Y-101191857D01*
X206343857Y-101049000D01*
X206415285Y-100977571D01*
X206415285Y-102549000D02*
X206343857Y-102620428D01*
X206272428Y-102549000D01*
X206343857Y-102477571D01*
X206415285Y-102549000D01*
X206272428Y-102549000D01*
X207129571Y-103477571D02*
X207201000Y-103334714D01*
X207272428Y-103263285D01*
X207415285Y-103191857D01*
X207486714Y-103191857D01*
X207629571Y-103263285D01*
X207701000Y-103334714D01*
X207772428Y-103477571D01*
X207772428Y-103763285D01*
X207701000Y-103906142D01*
X207629571Y-103977571D01*
X207486714Y-104049000D01*
X207415285Y-104049000D01*
X207272428Y-103977571D01*
X207201000Y-103906142D01*
X207129571Y-103763285D01*
X207129571Y-103477571D01*
X207058142Y-103334714D01*
X206986714Y-103263285D01*
X206843857Y-103191857D01*
X206558142Y-103191857D01*
X206415285Y-103263285D01*
X206343857Y-103334714D01*
X206272428Y-103477571D01*
X206272428Y-103763285D01*
X206343857Y-103906142D01*
X206415285Y-103977571D01*
X206558142Y-104049000D01*
X206843857Y-104049000D01*
X206986714Y-103977571D01*
X207058142Y-103906142D01*
X207129571Y-103763285D01*
X207629571Y-104620428D02*
X207701000Y-104691857D01*
X207772428Y-104834714D01*
X207772428Y-105191857D01*
X207701000Y-105334714D01*
X207629571Y-105406142D01*
X207486714Y-105477571D01*
X207343857Y-105477571D01*
X207129571Y-105406142D01*
X206272428Y-104549000D01*
X206272428Y-105477571D01*
X207772428Y-106406142D02*
X207772428Y-106549000D01*
X207701000Y-106691857D01*
X207629571Y-106763285D01*
X207486714Y-106834714D01*
X207201000Y-106906142D01*
X206843857Y-106906142D01*
X206558142Y-106834714D01*
X206415285Y-106763285D01*
X206343857Y-106691857D01*
X206272428Y-106549000D01*
X206272428Y-106406142D01*
X206343857Y-106263285D01*
X206415285Y-106191857D01*
X206558142Y-106120428D01*
X206843857Y-106049000D01*
X207201000Y-106049000D01*
X207486714Y-106120428D01*
X207629571Y-106191857D01*
X207701000Y-106263285D01*
X207772428Y-106406142D01*
X207772428Y-107834714D02*
X207772428Y-107977571D01*
X207701000Y-108120428D01*
X207629571Y-108191857D01*
X207486714Y-108263285D01*
X207201000Y-108334714D01*
X206843857Y-108334714D01*
X206558142Y-108263285D01*
X206415285Y-108191857D01*
X206343857Y-108120428D01*
X206272428Y-107977571D01*
X206272428Y-107834714D01*
X206343857Y-107691857D01*
X206415285Y-107620428D01*
X206558142Y-107549000D01*
X206843857Y-107477571D01*
X207201000Y-107477571D01*
X207486714Y-107549000D01*
X207629571Y-107620428D01*
X207701000Y-107691857D01*
X207772428Y-107834714D01*
X206272428Y-110120428D02*
X207272428Y-110120428D01*
X207772428Y-110120428D02*
X207701000Y-110049000D01*
X207629571Y-110120428D01*
X207701000Y-110191857D01*
X207772428Y-110120428D01*
X207629571Y-110120428D01*
X207272428Y-110834714D02*
X206272428Y-110834714D01*
X207129571Y-110834714D02*
X207201000Y-110906142D01*
X207272428Y-111049000D01*
X207272428Y-111263285D01*
X207201000Y-111406142D01*
X207058142Y-111477571D01*
X206272428Y-111477571D01*
X204851000Y-57785000D02*
X204851000Y-154813000D01*
X199771000Y-57785000D02*
X205437421Y-57785000D01*
X199771000Y-154813000D02*
X205437421Y-154813000D01*
X204851000Y-154813000D02*
X204264579Y-153686496D01*
X204851000Y-154813000D02*
X205437421Y-153686496D01*
X204851000Y-57785000D02*
X204264579Y-58911504D01*
X204851000Y-57785000D02*
X205437421Y-58911504D01*
X145935571Y-49783571D02*
X146864142Y-49783571D01*
X146364142Y-50355000D01*
X146578428Y-50355000D01*
X146721285Y-50426428D01*
X146792714Y-50497857D01*
X146864142Y-50640714D01*
X146864142Y-50997857D01*
X146792714Y-51140714D01*
X146721285Y-51212142D01*
X146578428Y-51283571D01*
X146149857Y-51283571D01*
X146007000Y-51212142D01*
X145935571Y-51140714D01*
X147507000Y-51140714D02*
X147578428Y-51212142D01*
X147507000Y-51283571D01*
X147435571Y-51212142D01*
X147507000Y-51140714D01*
X147507000Y-51283571D01*
X148435571Y-50426428D02*
X148292714Y-50355000D01*
X148221285Y-50283571D01*
X148149857Y-50140714D01*
X148149857Y-50069285D01*
X148221285Y-49926428D01*
X148292714Y-49855000D01*
X148435571Y-49783571D01*
X148721285Y-49783571D01*
X148864142Y-49855000D01*
X148935571Y-49926428D01*
X149007000Y-50069285D01*
X149007000Y-50140714D01*
X148935571Y-50283571D01*
X148864142Y-50355000D01*
X148721285Y-50426428D01*
X148435571Y-50426428D01*
X148292714Y-50497857D01*
X148221285Y-50569285D01*
X148149857Y-50712142D01*
X148149857Y-50997857D01*
X148221285Y-51140714D01*
X148292714Y-51212142D01*
X148435571Y-51283571D01*
X148721285Y-51283571D01*
X148864142Y-51212142D01*
X148935571Y-51140714D01*
X149007000Y-50997857D01*
X149007000Y-50712142D01*
X148935571Y-50569285D01*
X148864142Y-50497857D01*
X148721285Y-50426428D01*
X149578428Y-49926428D02*
X149649857Y-49855000D01*
X149792714Y-49783571D01*
X150149857Y-49783571D01*
X150292714Y-49855000D01*
X150364142Y-49926428D01*
X150435571Y-50069285D01*
X150435571Y-50212142D01*
X150364142Y-50426428D01*
X149507000Y-51283571D01*
X150435571Y-51283571D01*
X151364142Y-49783571D02*
X151507000Y-49783571D01*
X151649857Y-49855000D01*
X151721285Y-49926428D01*
X151792714Y-50069285D01*
X151864142Y-50355000D01*
X151864142Y-50712142D01*
X151792714Y-50997857D01*
X151721285Y-51140714D01*
X151649857Y-51212142D01*
X151507000Y-51283571D01*
X151364142Y-51283571D01*
X151221285Y-51212142D01*
X151149857Y-51140714D01*
X151078428Y-50997857D01*
X151007000Y-50712142D01*
X151007000Y-50355000D01*
X151078428Y-50069285D01*
X151149857Y-49926428D01*
X151221285Y-49855000D01*
X151364142Y-49783571D01*
X152792714Y-49783571D02*
X152935571Y-49783571D01*
X153078428Y-49855000D01*
X153149857Y-49926428D01*
X153221285Y-50069285D01*
X153292714Y-50355000D01*
X153292714Y-50712142D01*
X153221285Y-50997857D01*
X153149857Y-51140714D01*
X153078428Y-51212142D01*
X152935571Y-51283571D01*
X152792714Y-51283571D01*
X152649857Y-51212142D01*
X152578428Y-51140714D01*
X152507000Y-50997857D01*
X152435571Y-50712142D01*
X152435571Y-50355000D01*
X152507000Y-50069285D01*
X152578428Y-49926428D01*
X152649857Y-49855000D01*
X152792714Y-49783571D01*
X155078428Y-51283571D02*
X155078428Y-50283571D01*
X155078428Y-49783571D02*
X155007000Y-49855000D01*
X155078428Y-49926428D01*
X155149857Y-49855000D01*
X155078428Y-49783571D01*
X155078428Y-49926428D01*
X155792714Y-50283571D02*
X155792714Y-51283571D01*
X155792714Y-50426428D02*
X155864142Y-50355000D01*
X156007000Y-50283571D01*
X156221285Y-50283571D01*
X156364142Y-50355000D01*
X156435571Y-50497857D01*
X156435571Y-51283571D01*
X102743000Y-52705000D02*
X199771000Y-52705000D01*
X102743000Y-73914000D02*
X102743000Y-52118579D01*
X199771000Y-73914000D02*
X199771000Y-52118579D01*
X199771000Y-52705000D02*
X198644496Y-53291421D01*
X199771000Y-52705000D02*
X198644496Y-52118579D01*
X102743000Y-52705000D02*
X103869504Y-53291421D01*
X102743000Y-52705000D02*
X103869504Y-52118579D01*
M02*
