M48
INCH,TZ
T1C0.0160
T2C0.0315
T3C0.0394
T4C0.1260
%
G90
G05
T1
X43300Y-54600
X43300Y-56600
X44000Y-49100
X44000Y-49600
X44000Y-50600
X44000Y-51600
X44000Y-52600
X44000Y-53600
X44300Y-44450
X44300Y-45100
X44300Y-46600
X44800Y-38650
X45200Y-41100
X45300Y-45600
X45300Y-46600
X45500Y-40100
X45800Y-46600
X46400Y-38650
X46450Y-40100
X46450Y-42100
X46800Y-29100
X46800Y-29600
X46800Y-37100
X46800Y-50100
X46800Y-51100
X46800Y-52100
X46800Y-53100
X47200Y-36100
X47300Y-43600
X47300Y-46100
X47550Y-48100
X47800Y-30100
X47800Y-30600
X47800Y-38100
X48050Y-50100
X48200Y-35100
X48500Y-34100
X48550Y-45100
X48800Y-31100
X48800Y-31600
X48800Y-39100
X48850Y-45400
X48850Y-48100
X48850Y-48600
X49150Y-45100
X49150Y-45600
X49300Y-29600
X49300Y-34100
X49300Y-35100
X49300Y-36100
X49300Y-37100
X49300Y-38100
X49300Y-39100
X49300Y-40100
X51300Y-40600
X51300Y-41600
X51300Y-42600
X51800Y-50100
X51800Y-51100
X51800Y-52100
X51800Y-53100
X51800Y-54100
X51800Y-55100
X51800Y-57100
X56300Y-43600
X56300Y-44100
X56300Y-44600
X56300Y-45100
X56800Y-45100
X57300Y-39100
X57300Y-45100
X57800Y-39550
X57800Y-45100
X58300Y-45100
X58800Y-39600
X58800Y-45100
X59300Y-39900
X59300Y-45100
X59800Y-45100
X60300Y-38400
X60800Y-38700
X61300Y-45100
X62000Y-34900
X63800Y-31600
X64800Y-31100
X65300Y-37000
X65800Y-30600
X66300Y-38400
X66800Y-28600
X67300Y-38400
X67800Y-29100
X68300Y-38100
X68800Y-30100
X69300Y-37350
X69300Y-38250
X70300Y-38250
X70800Y-29600
X70800Y-41350
X71300Y-38550
X72300Y-38850
X72680Y-39150
X73300Y-39150
X73300Y-39550
X73800Y-39900
X74300Y-37950
X74300Y-45600
X74800Y-35950
X74800Y-43100
X75300Y-37650
X75300Y-43100
X75800Y-36250
X75800Y-43600
X76300Y-37350
X76300Y-45100
X76800Y-36550
X76800Y-43600
X77300Y-33600
X77300Y-37600
X77800Y-37050
T2
X46800Y-23600
X46800Y-32600
X47800Y-23600
X47800Y-32600
X48800Y-23600
X48800Y-32600
X49800Y-23600
X49800Y-32600
X50800Y-23600
X50800Y-32600
X51800Y-23600
X51800Y-32600
X52800Y-23600
X52800Y-32600
X53800Y-23600
X53800Y-32600
X54800Y-23600
X54800Y-32600
X55800Y-23600
X55800Y-32600
X56800Y-23600
X56800Y-32600
X57800Y-23600
X57800Y-32600
X58800Y-23600
X58800Y-32600
X59800Y-23600
X59800Y-32600
X60800Y-23600
X60800Y-32600
X61800Y-23600
X61800Y-32600
X62800Y-23600
X62800Y-32600
X63800Y-23600
X63800Y-32600
X64800Y-23600
X64800Y-32600
X65800Y-23600
X65800Y-32600
X66800Y-23600
X66800Y-32600
X67800Y-23600
X67800Y-32600
X68800Y-23600
X68800Y-32600
X69800Y-23600
X69800Y-32600
X70800Y-23600
X70800Y-32600
X71800Y-23600
X71800Y-32600
X72800Y-23600
X72800Y-32600
X73800Y-23600
X73800Y-32600
X74800Y-23600
X74800Y-32600
X75800Y-23600
X75800Y-32600
X76800Y-23600
X76800Y-32600
X77800Y-23600
X77800Y-32600
X62800Y-42100
X62800Y-48100
X63800Y-42100
X63800Y-48100
X64800Y-42100
X64800Y-48100
X65800Y-42100
X65800Y-48100
X66800Y-42100
X66800Y-48100
X67800Y-42100
X67800Y-48100
X68800Y-42100
X68800Y-48100
X69800Y-42100
X69800Y-48100
X70800Y-42100
X70800Y-48100
X71800Y-42100
X71800Y-48100
X72800Y-42100
X72800Y-48100
X73800Y-42100
X73800Y-48100
X74800Y-42100
X74800Y-48100
X75800Y-42100
X75800Y-48100
X76800Y-42100
X76800Y-48100
X77800Y-42100
X77800Y-48100
X41300Y-29100
X41300Y-30100
X41300Y-31100
X41300Y-32100
X41300Y-33100
X41300Y-34100
X41300Y-35100
X41300Y-36100
X41300Y-37100
X41300Y-38100
X41300Y-39100
X41300Y-40100
X41300Y-41100
X41300Y-42100
X41300Y-43100
X41300Y-44100
X41300Y-45100
X41300Y-46100
X41300Y-47100
X41300Y-48100
X41300Y-49100
X41300Y-50100
X41300Y-51100
X41300Y-52100
X41300Y-53100
X41300Y-54100
X41300Y-55100
X41300Y-56100
X41300Y-57100
X41300Y-58100
X41300Y-59100
X41300Y-60100
X50300Y-29100
X50300Y-30100
X50300Y-31100
X50300Y-32100
X50300Y-33100
X50300Y-34100
X50300Y-35100
X50300Y-36100
X50300Y-37100
X50300Y-38100
X50300Y-39100
X50300Y-40100
X50300Y-41100
X50300Y-42100
X50300Y-43100
X50300Y-44100
X50300Y-45100
X50300Y-46100
X50300Y-47100
X50300Y-48100
X50300Y-49100
X50300Y-50100
X50300Y-51100
X50300Y-52100
X50300Y-53100
X50300Y-54100
X50300Y-55100
X50300Y-56100
X50300Y-57100
X50300Y-58100
X50300Y-59100
X50300Y-60100
X62800Y-34600
X62800Y-40600
X63800Y-34600
X63800Y-40600
X64800Y-34600
X64800Y-40600
X65800Y-34600
X65800Y-40600
X66800Y-34600
X66800Y-40600
X67800Y-34600
X67800Y-40600
X68800Y-34600
X68800Y-40600
X69800Y-34600
X69800Y-40600
X70800Y-34600
X70800Y-40600
X71800Y-34600
X71800Y-40600
X72800Y-34600
X72800Y-40600
X73800Y-34600
X73800Y-40600
X74800Y-34600
X74800Y-40600
X75800Y-34600
X75800Y-40600
X76800Y-34600
X76800Y-40600
X77800Y-34600
X77800Y-40600
T3
X44800Y-36600
X44800Y-37600
X43300Y-32600
X43300Y-33600
X43300Y-34600
X43300Y-35600
X43300Y-36600
X43300Y-37600
T4
X74250Y-51800
T0
M30
