M48
; DRILL file {KiCad (5.1.4-0-10_14)} date 2023 January 20, Friday 22:12:49
; FORMAT={-:-/ absolute / inch / decimal}
; #@! TF.CreationDate,2023-01-20T22:12:49+01:00
; #@! TF.GenerationSoftware,Kicad,Pcbnew,(5.1.4-0-10_14)
; #@! TF.FileFunction,Plated,1,4,PTH
FMAT,2
INCH
T1C0.0160
T2C0.0315
T3C0.0394
T4C0.1260
%
G90
G05
T1
X4.33Y-5.46
X4.33Y-5.66
X4.4Y-4.91
X4.4Y-4.96
X4.4Y-5.06
X4.4Y-5.16
X4.4Y-5.26
X4.4Y-5.36
X4.43Y-4.445
X4.43Y-4.51
X4.43Y-4.66
X4.48Y-3.865
X4.52Y-4.11
X4.53Y-4.56
X4.53Y-4.66
X4.55Y-4.01
X4.58Y-4.66
X4.64Y-3.865
X4.645Y-4.01
X4.645Y-4.21
X4.68Y-2.91
X4.68Y-2.96
X4.68Y-3.71
X4.68Y-5.01
X4.68Y-5.11
X4.68Y-5.21
X4.68Y-5.31
X4.72Y-3.61
X4.73Y-4.36
X4.73Y-4.61
X4.755Y-4.81
X4.78Y-3.01
X4.78Y-3.06
X4.78Y-3.81
X4.805Y-5.01
X4.82Y-3.51
X4.85Y-3.41
X4.855Y-4.51
X4.88Y-3.11
X4.88Y-3.16
X4.88Y-3.91
X4.885Y-4.54
X4.885Y-4.81
X4.885Y-4.86
X4.915Y-4.51
X4.915Y-4.56
X4.93Y-2.96
X4.93Y-3.41
X4.93Y-3.51
X4.93Y-3.61
X4.93Y-3.71
X4.93Y-3.81
X4.93Y-3.91
X4.93Y-4.01
X5.13Y-4.06
X5.13Y-4.16
X5.13Y-4.26
X5.18Y-5.01
X5.18Y-5.11
X5.18Y-5.21
X5.18Y-5.31
X5.18Y-5.41
X5.18Y-5.51
X5.18Y-5.71
X5.63Y-4.36
X5.63Y-4.41
X5.63Y-4.46
X5.63Y-4.51
X5.68Y-4.51
X5.73Y-3.91
X5.73Y-4.51
X5.78Y-3.955
X5.78Y-4.51
X5.83Y-4.51
X5.88Y-3.96
X5.88Y-4.51
X5.93Y-3.99
X5.93Y-4.51
X5.98Y-4.51
X6.03Y-3.84
X6.08Y-3.87
X6.13Y-4.51
X6.2Y-3.49
X6.38Y-3.16
X6.48Y-3.11
X6.53Y-3.7
X6.58Y-3.06
X6.63Y-3.84
X6.68Y-2.86
X6.73Y-3.84
X6.78Y-2.91
X6.83Y-3.81
X6.88Y-3.01
X6.93Y-3.735
X6.93Y-3.825
X7.03Y-3.825
X7.08Y-2.96
X7.08Y-4.135
X7.13Y-3.855
X7.23Y-3.885
X7.268Y-3.915
X7.33Y-3.915
X7.33Y-3.955
X7.38Y-3.99
X7.43Y-3.795
X7.43Y-4.56
X7.48Y-3.595
X7.48Y-4.31
X7.53Y-3.765
X7.53Y-4.31
X7.58Y-3.625
X7.58Y-4.36
X7.63Y-3.735
X7.63Y-4.51
X7.68Y-3.655
X7.68Y-4.36
X7.73Y-3.36
X7.73Y-3.76
X7.78Y-3.705
T2
X4.13Y-2.91
X4.68Y-2.36
X4.13Y-3.01
X4.13Y-3.11
X4.13Y-3.21
X4.68Y-3.26
X4.78Y-2.36
X4.78Y-3.26
X4.88Y-2.36
X4.88Y-3.26
X4.98Y-2.36
X4.98Y-3.26
X5.08Y-2.36
X5.08Y-3.26
X5.18Y-2.36
X5.18Y-3.26
X5.28Y-2.36
X5.28Y-3.26
X5.38Y-2.36
X5.38Y-3.26
X5.48Y-2.36
X5.48Y-3.26
X5.58Y-2.36
X5.58Y-3.26
X5.68Y-2.36
X5.68Y-3.26
X5.78Y-2.36
X5.78Y-3.26
X5.88Y-2.36
X5.88Y-3.26
X5.98Y-2.36
X5.98Y-3.26
X6.08Y-2.36
X6.08Y-3.26
X6.18Y-2.36
X6.18Y-3.26
X6.28Y-2.36
X6.28Y-3.26
X6.38Y-2.36
X6.38Y-3.26
X6.48Y-2.36
X6.48Y-3.26
X6.58Y-2.36
X6.58Y-3.26
X6.68Y-2.36
X6.68Y-3.26
X6.78Y-2.36
X6.78Y-3.26
X6.88Y-2.36
X6.88Y-3.26
X6.98Y-2.36
X6.98Y-3.26
X7.08Y-2.36
X7.08Y-3.26
X7.18Y-2.36
X7.18Y-3.26
X7.28Y-2.36
X7.28Y-3.26
X7.38Y-2.36
X7.38Y-3.26
X7.48Y-2.36
X7.48Y-3.26
X7.58Y-2.36
X7.58Y-3.26
X7.68Y-2.36
X7.68Y-3.26
X7.78Y-2.36
X7.78Y-3.26
X6.28Y-4.21
X6.28Y-4.81
X6.38Y-4.21
X6.38Y-4.81
X6.48Y-4.21
X6.48Y-4.81
X6.58Y-4.21
X6.58Y-4.81
X6.68Y-4.21
X6.68Y-4.81
X6.78Y-4.21
X6.78Y-4.81
X6.88Y-4.21
X6.88Y-4.81
X6.98Y-4.21
X6.98Y-4.81
X7.08Y-4.21
X7.08Y-4.81
X7.18Y-4.21
X7.18Y-4.81
X7.28Y-4.21
X7.28Y-4.81
X7.38Y-4.21
X7.38Y-4.81
X7.48Y-4.21
X7.48Y-4.81
X7.58Y-4.21
X7.58Y-4.81
X7.68Y-4.21
X7.68Y-4.81
X7.78Y-4.21
X7.78Y-4.81
X4.13Y-3.31
X4.13Y-3.41
X4.13Y-3.51
X4.13Y-3.61
X4.13Y-3.71
X4.13Y-3.81
X4.13Y-3.91
X4.13Y-4.01
X4.13Y-4.11
X4.13Y-4.21
X4.13Y-4.31
X4.13Y-4.41
X4.13Y-4.51
X4.13Y-4.61
X4.13Y-4.71
X4.13Y-4.81
X4.13Y-4.91
X4.13Y-5.01
X4.13Y-5.11
X4.13Y-5.21
X4.13Y-5.31
X4.13Y-5.41
X4.13Y-5.51
X4.13Y-5.61
X4.13Y-5.71
X4.13Y-5.81
X4.13Y-5.91
X4.13Y-6.01
X5.03Y-2.91
X5.03Y-3.01
X5.03Y-3.11
X5.03Y-3.21
X5.03Y-3.31
X5.03Y-3.41
X5.03Y-3.51
X5.03Y-3.61
X5.03Y-3.71
X5.03Y-3.81
X5.03Y-3.91
X5.03Y-4.01
X5.03Y-4.11
X5.03Y-4.21
X5.03Y-4.31
X5.03Y-4.41
X5.03Y-4.51
X5.03Y-4.61
X5.03Y-4.71
X5.03Y-4.81
X5.03Y-4.91
X5.03Y-5.01
X5.03Y-5.11
X5.03Y-5.21
X5.03Y-5.31
X5.03Y-5.41
X6.28Y-3.46
X6.28Y-4.06
X6.38Y-3.46
X6.38Y-4.06
X6.48Y-3.46
X6.48Y-4.06
X6.58Y-3.46
X6.58Y-4.06
X6.68Y-3.46
X6.68Y-4.06
X6.78Y-3.46
X6.78Y-4.06
X6.88Y-3.46
X6.88Y-4.06
X6.98Y-3.46
X6.98Y-4.06
X5.03Y-5.51
X5.03Y-5.61
X5.03Y-5.71
X7.18Y-4.06
X7.08Y-3.46
X7.08Y-4.06
X7.18Y-3.46
X7.28Y-3.46
X7.38Y-4.06
X7.68Y-4.06
X7.78Y-4.06
X5.03Y-6.01
X7.38Y-3.46
X5.03Y-5.91
X7.48Y-3.46
X5.03Y-5.81
X7.28Y-4.06
X7.48Y-4.06
X7.58Y-3.46
X7.58Y-4.06
X7.68Y-3.46
X7.78Y-3.46
T3
X4.33Y-3.26
X4.33Y-3.36
X4.33Y-3.46
X4.33Y-3.56
X4.33Y-3.66
X4.33Y-3.76
X4.48Y-3.66
X4.48Y-3.76
T4
X7.425Y-5.18
T0
M30
